<?xml version="1.0" encoding="UTF-8"?>
<svg width="63px" height="30px" viewBox="0 0 63 30" version="1.1" xmlns="http://www.w3.org/2000/svg" xmlns:xlink="http://www.w3.org/1999/xlink">
    <!-- Generator: Sketch 50 (54983) - http://www.bohemiancoding.com/sketch -->
    <title>logo/secondary</title>
    <desc>Created with Sketch.</desc>
    <defs>
        <linearGradient x1="95.0140718%" y1="97.5717056%" x2="5.09712469%" y2="2.58547379%" id="linearGradient-1">
            <stop stop-color="#4CE9F2" offset="0%"></stop>
            <stop stop-color="#00DFED" offset="60%"></stop>
            <stop stop-color="#00D6EA" offset="64.13%"></stop>
            <stop stop-color="#00BEE3" offset="70.88%"></stop>
            <stop stop-color="#0096D6" offset="79.41%"></stop>
            <stop stop-color="#005FC5" offset="89.37%"></stop>
            <stop stop-color="#001CB0" offset="100%"></stop>
        </linearGradient>
        <linearGradient x1="99.7724071%" y1="72.9032531%" x2="0.101499225%" y2="27.8034261%" id="linearGradient-2">
            <stop stop-color="#4CE9F2" offset="0%"></stop>
            <stop stop-color="#00DFED" offset="60%"></stop>
            <stop stop-color="#00D6EA" offset="64.13%"></stop>
            <stop stop-color="#00BEE3" offset="70.88%"></stop>
            <stop stop-color="#0096D6" offset="79.41%"></stop>
            <stop stop-color="#005FC5" offset="89.37%"></stop>
            <stop stop-color="#001CB0" offset="100%"></stop>
        </linearGradient>
        <linearGradient x1="70.8326353%" y1="99.9999926%" x2="29.8816722%" y2="0.127890779%" id="linearGradient-3">
            <stop stop-color="#4CE9F2" offset="0%"></stop>
            <stop stop-color="#00DFED" offset="60%"></stop>
            <stop stop-color="#00D6EA" offset="64.13%"></stop>
            <stop stop-color="#00BEE3" offset="70.88%"></stop>
            <stop stop-color="#0096D6" offset="79.41%"></stop>
            <stop stop-color="#005FC5" offset="89.37%"></stop>
            <stop stop-color="#001CB0" offset="100%"></stop>
        </linearGradient>
        <linearGradient x1="15.1155821%" y1="99.359224%" x2="85.007076%" y2="0.782755383%" id="linearGradient-4">
            <stop stop-color="#4CE9F2" offset="0%"></stop>
            <stop stop-color="#00DFED" offset="60%"></stop>
            <stop stop-color="#00D6EA" offset="64.13%"></stop>
            <stop stop-color="#00BEE3" offset="70.88%"></stop>
            <stop stop-color="#0096D6" offset="79.41%"></stop>
            <stop stop-color="#005FC5" offset="89.37%"></stop>
            <stop stop-color="#001CB0" offset="100%"></stop>
        </linearGradient>
        <linearGradient x1="6.94898268%" y1="94.9564358%" x2="93.1165832%" y2="5.24925274%" id="linearGradient-5">
            <stop stop-color="#4CE9F2" offset="0%"></stop>
            <stop stop-color="#00DFED" offset="60%"></stop>
            <stop stop-color="#00D6EA" offset="64.13%"></stop>
            <stop stop-color="#00BEE3" offset="70.88%"></stop>
            <stop stop-color="#0096D6" offset="79.41%"></stop>
            <stop stop-color="#005FC5" offset="89.37%"></stop>
            <stop stop-color="#001CB0" offset="100%"></stop>
        </linearGradient>
    </defs>
    <g id="Page-1" stroke="none" stroke-width="1" fill="none" fill-rule="evenodd">
        <g id="logo/secondary" fill-rule="nonzero">
            <g>
                <g id="agl" transform="translate(31.231414, 2.459016)" fill="#000000">
                    <path d="M6.30874571,5.98032787 C5.2854289,5.98032787 4.33823866,6.10868852 3.4935265,6.36196721 C2.6507663,6.6152459 1.94757148,6.90786885 1.40394968,7.23196721 L1.34441479,7.26737705 L1.7279756,8.46245902 L1.81971788,8.41131148 C2.39164316,8.09360656 3.04701487,7.83147541 3.76582539,7.63278689 C4.48609989,7.43409836 5.34154785,7.33327869 6.30874571,7.33327869 C7.54092261,7.33327869 8.49640869,7.62098361 9.14738849,8.18901639 C9.79446435,8.75409836 10.1228822,9.75934426 10.1228822,11.1772131 L10.1228822,12.1180328 L6.66888296,12.1180328 C4.5597865,12.1180328 2.93770492,12.5203279 1.84753336,13.3136066 C0.748577964,14.1132787 0.191292413,15.327541 0.191292413,16.9219672 C0.191292413,17.6168852 0.30987419,18.2390164 0.543621807,18.7716393 C0.777369424,19.3047541 1.10773923,19.7621311 1.52594739,20.132459 C1.94220358,20.5013115 2.44239421,20.7821311 3.01139154,20.9660656 C3.57697293,21.1495082 4.1918414,21.242459 4.83794129,21.242459 C6.08817385,21.242459 7.18322531,20.9636066 8.09284026,20.4137705 C8.93218452,19.9062295 9.62513153,19.1990164 10.1550896,18.3093443 L10.4922913,21.0004918 L11.6449257,21.0004918 L11.6449257,11.1777049 C11.6449257,9.58967213 11.197926,8.31295082 10.3156386,7.38295082 C9.43335112,6.45245902 8.08503241,5.98032787 6.30874571,5.98032787 Z M10.1223942,13.472459 L10.1223942,15.0181967 C10.1223942,15.6088525 10.0033244,16.1980328 9.76908883,16.7690164 C9.53387724,17.3414754 9.19179565,17.8667213 8.75113992,18.3295082 C8.31097217,18.7932787 7.7600305,19.1729508 7.11393061,19.4586885 C6.46880671,19.744918 5.71339687,19.89 4.86868471,19.89 C4.43876477,19.89 4.02299657,19.8304918 3.63357987,19.712459 C3.24611514,19.5954098 2.90354556,19.4129508 2.61416698,19.1695082 C2.3252764,18.927541 2.0959207,18.6172131 1.93244377,18.2483607 C1.76847884,17.8790164 1.68503241,17.4329508 1.68503241,16.9234426 C1.68503241,15.7293443 2.07152116,14.847541 2.83376287,14.3036066 C3.60576439,13.7522951 4.8960122,13.4729508 6.66937095,13.4729508 L10.1223942,13.4729508 L10.1223942,13.472459 Z" id="Shape"></path>
                    <path d="M25.0363706,8.91737705 C24.8563019,8.62377049 24.640122,8.32868852 24.3907587,8.03655738 C24.0764926,7.66918033 23.6973237,7.32836066 23.2644758,7.02393443 C22.8306519,6.71901639 22.3338772,6.46622951 21.7883035,6.27245902 C21.2407777,6.07868852 20.6254213,5.98032787 19.9593138,5.98032787 C19.1307053,5.98032787 18.3411361,6.15098361 17.6130538,6.48737705 C16.8849714,6.82377049 16.2339916,7.32491803 15.67817,7.97606557 C15.1233244,8.62672131 14.6787648,9.42983607 14.3566908,10.3627869 C14.0351048,11.2947541 13.8716279,12.3727869 13.8716279,13.5663934 C13.8716279,14.9213115 14.0297369,16.0952459 14.3410751,17.0557377 C14.6533892,18.0206557 15.093557,18.8247541 15.6493786,19.4454098 C16.2056881,20.0680328 16.8732596,20.5283607 17.6335494,20.8140984 C18.3904232,21.0983607 19.2234236,21.2429508 20.109127,21.2429508 C21.2617613,21.2429508 22.2723904,20.9532787 23.1127106,20.3813115 C23.8661685,19.8688525 24.5010446,19.1916393 25.0031872,18.3644262 L25.0031872,20.2185246 C25.0031872,21.2109836 24.8885093,22.0667213 24.6625696,22.7616393 C24.4376058,23.4511475 24.1213877,24.0147541 23.7222112,24.4372131 C23.3240107,24.8577049 22.8365078,25.1655738 22.2723904,25.3519672 C21.7029051,25.5398361 21.0558292,25.6352459 20.3492185,25.6352459 C19.4215478,25.6352459 18.5563401,25.5245902 17.7770187,25.3057377 C16.9947693,25.0859016 16.31939,24.8237705 15.7694243,24.5267213 L15.67817,24.477541 L15.2638658,25.765082 L15.3273046,25.7995082 C15.8884941,26.1029508 16.6053526,26.3896721 17.4578727,26.6527869 C18.3133206,26.9159016 19.2658788,27.0496721 20.2887076,27.0496721 C22.2431109,27.0496721 23.7929699,26.4816393 24.8958292,25.3608197 C25.9972246,24.24 26.5559741,22.5201639 26.5559741,20.2495082 L26.5559741,6.22229508 L25.3730843,6.22229508 L25.0363706,8.91737705 Z M25.0036752,10.7178689 L25.0036752,14.5042623 C25.0036752,15.1578689 24.8992451,15.81 24.693313,16.442459 C24.4878689,17.0739344 24.1799466,17.6498361 23.7778422,18.1539344 C23.3772017,18.6560656 22.8716432,19.0657377 22.2758063,19.3706557 C21.6814335,19.675082 20.9826306,19.83 20.1998933,19.83 C19.5923446,19.83 18.9916279,19.7198361 18.4148227,19.5029508 C17.8404575,19.287541 17.3270911,18.9290164 16.8888753,18.4377049 C16.4487076,17.9454098 16.0914983,17.2942623 15.8265193,16.502459 C15.5610522,15.7096721 15.4258788,14.7216393 15.4258788,13.5668852 C15.4258788,12.512459 15.5556843,11.5854098 15.8113915,10.8127869 C16.0661228,10.0411475 16.4140602,9.39491803 16.8449562,8.89180328 C17.2734121,8.39114754 17.7731148,8.01196721 18.3294243,7.76557377 C18.8867099,7.51967213 19.4859626,7.3947541 20.1101029,7.3947541 C21.1265879,7.3947541 22.0581624,7.69918033 22.879451,8.30016393 C23.7007396,8.90163934 24.4156462,9.71508197 25.0036752,10.7178689 Z" id="Shape"></path>
                    <rect id="Rectangle-path" x="30.1944339" y="0.446557377" width="1.55278689" height="20.554918"></rect>
                </g>
                <g id="hand">
                    <path d="M2.88256195,5.97344262 C3.43691956,5.52491803 4.25479222,5.61540984 4.69983988,6.17459016 L11.682501,14.9454098 C12.1275486,15.5040984 12.0377583,16.3283607 11.4829127,16.7768852 L11.4829127,16.7768852 C10.9285551,17.2254098 10.1106824,17.134918 9.66563477,16.5757377 L2.68346169,7.80491803 C2.23841403,7.2457377 2.32820435,6.42196721 2.88256195,5.97344262 L2.88256195,5.97344262 Z" id="Shape" fill="url(#linearGradient-1)"></path>
                    <path d="M0.0175676706,20.5844262 C0.134685475,19.8777049 0.804208921,19.3957377 1.50545177,19.5137705 L9.58706824,20.872623 C10.2883111,20.9906557 10.7665421,21.6654098 10.6494243,22.3721311 L10.6494243,22.3721311 C10.5323065,23.0788525 9.86278307,23.5608197 9.16154022,23.4427869 L1.07992375,22.0839344 C0.3786809,21.9659016 -0.0995501334,21.2911475 0.0175676706,20.5844262 L0.0175676706,20.5844262 Z" id="Shape" fill="url(#linearGradient-2)"></path>
                    <path d="M13.1659931,0.00885245902 C13.8721159,-0.0737704918 14.5172398,0.440655738 14.5992223,1.15278689 L15.8865421,12.322623 C15.9685246,13.0342623 15.4580862,13.6844262 14.7514754,13.7670492 L14.7514754,13.7670492 C14.0453526,13.8496721 13.4002287,13.3352459 13.3182463,12.6231148 L12.0309264,1.45327869 C11.948944,0.741639344 12.4593824,0.0914754098 13.1659931,0.00885245902 L13.1659931,0.00885245902 Z" id="Shape" fill="url(#linearGradient-3)"></path>
                    <path d="M22.5412734,2.9842623 C23.2093328,3.22967213 23.5562943,3.98163934 23.3122989,4.65491803 L20.2550362,13.0981967 C20.0115288,13.7714754 19.2653908,14.1211475 18.5973313,13.8752459 L18.5973313,13.8752459 C17.9292718,13.6298361 17.5823103,12.8778689 17.8263058,12.2045902 L20.8835684,3.76131148 C21.1275639,3.08852459 21.8737019,2.73885246 22.5412734,2.9842623 L22.5412734,2.9842623 Z" id="Shape" fill="url(#linearGradient-4)"></path>
                    <path d="M27.6437057,9.80655738 C28.1702478,10.2880328 28.210751,11.1157377 27.733496,11.6468852 L24.2023942,15.5729508 C23.7246512,16.1036066 22.9033626,16.1444262 22.3763324,15.6634426 L22.3763324,15.6634426 C21.8497903,15.1819672 21.8092871,14.3542623 22.2865421,13.8231148 L25.8176439,9.89704918 C26.294899,9.36590164 27.1166756,9.32557377 27.6437057,9.80655738 L27.6437057,9.80655738 Z" id="Shape" fill="url(#linearGradient-5)"></path>
                </g>
            </g>
        </g>
    </g>
</svg>