<?xml version="1.0" encoding="UTF-8"?>
<svg width="110px" height="110px" viewBox="0 0 110 110" version="1.1" xmlns="http://www.w3.org/2000/svg" xmlns:xlink="http://www.w3.org/1999/xlink">
    <!-- Generator: Sketch 50.2 (55047) - http://www.bohemiancoding.com/sketch -->
    <title>Group 22 Copy</title>
    <desc>Created with Sketch.</desc>
    <defs></defs>
    <g id="Page-1" stroke="none" stroke-width="1" fill="none" fill-rule="evenodd">
        <g id="h2h-/-resultsmultiple-copy-5" transform="translate(-645.000000, -134.000000)">
            <g id="Group-22-Copy" transform="translate(635.000000, 124.000000)">
                <g id="Yeah-buoy">
                    <rect id="Rectangle-path" fill-rule="nonzero" x="0" y="0" width="130" height="130"></rect>
                    <g id="Group" transform="translate(11.818182, 11.818182)">
                        <circle id="Oval" stroke="#00DFED" stroke-width="1.7647" cx="53.1818182" cy="53.1818182" r="53.1818182"></circle>
                        <path d="M12.6454545,93.7181818 C11.4636364,92.5363636 11.4636364,90.5272727 12.6454545,89.3454545 L17.0181818,84.9727273 C18.2,83.7909091 20.2090909,83.7909091 21.3909091,84.9727273 C22.5727273,86.1545455 22.5727273,88.1636364 21.3909091,89.3454545 L17.0181818,93.7181818 C15.8363636,94.9 13.8272727,94.9 12.6454545,93.7181818 Z" id="Shape" fill="#EBEBEB" fill-rule="nonzero"></path>
                        <path d="M85.2090909,21.7454545 C84.0272727,20.5636364 84.0272727,18.5545455 85.2090909,17.3727273 L89.5818182,13 C90.7636364,11.8181818 92.7727273,11.8181818 93.9545455,13 C95.1363636,14.1818182 95.1363636,16.1909091 93.9545455,17.3727273 L89.5818182,21.7454545 C88.4,22.9272727 86.3909091,22.9272727 85.2090909,21.7454545 Z" id="Shape" fill="#EBEBEB" fill-rule="nonzero"></path>
                        <path d="M93.7181818,93.9545455 C92.5363636,95.1363636 90.5272727,95.1363636 89.3454545,93.9545455 L84.9727273,89.5818182 C83.7909091,88.4 83.7909091,86.3909091 84.9727273,85.2090909 C86.1545455,84.0272727 88.1636364,84.0272727 89.3454545,85.2090909 L93.7181818,89.5818182 C94.9,90.7636364 94.9,92.7727273 93.7181818,93.9545455 Z" id="Shape" fill="#EBEBEB" fill-rule="nonzero"></path>
                        <path d="M21.7454545,21.5090909 C20.5636364,22.6909091 18.5545455,22.6909091 17.3727273,21.5090909 L13,17.1363636 C11.8181818,15.9545455 11.8181818,13.9454545 13,12.7636364 C14.1818182,11.5818182 16.1909091,11.5818182 17.3727273,12.7636364 L21.7454545,17.1363636 C22.9272727,18.3181818 22.9272727,20.2090909 21.7454545,21.5090909 Z" id="Shape" fill="#EBEBEB" fill-rule="nonzero"></path>
                        <path d="M62.5181818,75.8727273 C68.3090909,73.5090909 73.1545455,68.9 75.7545455,62.6363636 L98.4454545,71.9727273 C93.2454545,84.5 83.5545455,93.7181818 71.9727273,98.4454545 L62.5181818,75.8727273 Z" id="Shape" fill="#F5F5F5" fill-rule="nonzero"></path>
                        <path d="M43.8454545,30.4909091 C38.0545455,32.8545455 33.2090909,37.4636364 30.6090909,43.7272727 L7.91818182,34.3909091 C13.1181818,21.8636364 22.8090909,12.6454545 34.3909091,7.91818182 L43.8454545,30.4909091 Z" id="Shape" fill="#EBEBEB" fill-rule="nonzero"></path>
                        <path d="M75.8727273,62.5181818 C78.2363636,56.7272727 78.4727273,49.9909091 75.8727273,43.7272727 L98.5636364,34.3909091 C103.763636,46.9181818 103.409091,60.2727273 98.5636364,71.8545455 L75.8727273,62.5181818 Z" id="Shape" fill="#00DFED" fill-rule="nonzero"></path>
                        <path d="M30.4909091,43.8454545 C28.1272727,49.6363636 27.8909091,56.3727273 30.4909091,62.6363636 L7.8,71.9727273 C2.6,59.4454545 2.95454545,46.0909091 7.8,34.5090909 L30.4909091,43.8454545 Z" id="Shape" fill="#00DFED" fill-rule="nonzero"></path>
                        <path d="M75.8727273,43.8454545 C73.5090909,38.0545455 68.9,33.2090909 62.6363636,30.6090909 L71.9727273,7.91818182 C84.5,13.1181818 93.7181818,22.8090909 98.4454545,34.3909091 L75.8727273,43.8454545 Z" id="Shape" fill="#F5F5F5" fill-rule="nonzero"></path>
                        <path d="M30.4909091,62.5181818 C32.8545455,68.3090909 37.4636364,73.1545455 43.7272727,75.7545455 L34.3909091,98.4454545 C21.8636364,93.2454545 12.6454545,83.5545455 7.91818182,71.9727273 L30.4909091,62.5181818 Z" id="Shape" fill="#F5F5F5" fill-rule="nonzero"></path>
                        <path d="M62.5181818,30.4909091 C56.7272727,28.1272727 49.9909091,27.8909091 43.7272727,30.4909091 L34.3909091,7.8 C46.9181818,2.6 60.2727273,2.95454545 71.8545455,7.8 L62.5181818,30.4909091 Z" id="Shape" fill="#00DFED" fill-rule="nonzero"></path>
                        <path d="M43.8454545,75.8727273 C49.6363636,78.2363636 56.3727273,78.4727273 62.6363636,75.8727273 L71.9727273,98.5636364 C59.4454545,103.763636 46.0909091,103.409091 34.5090909,98.5636364 L43.8454545,75.8727273 Z" id="Shape" fill="#00DFED" fill-rule="nonzero"></path>
                        <path d="M90.2909091,21.1545455 L94.0727273,17.3727273 C95.2545455,16.1909091 95.2545455,14.1818182 94.0727273,13 C92.8909091,11.8181818 90.8818182,11.8181818 89.7,13 L85.9181818,16.7818182 C81.9,13.2363636 77.2909091,10.1636364 71.9727273,8.03636364 C54.2454545,0.709090909 34.6272727,4.60909091 21.0363636,16.4272727 L17.3727273,12.7636364 C16.1909091,11.5818182 14.1818182,11.5818182 13,12.7636364 C11.8181818,13.9454545 11.8181818,15.9545455 13,17.1363636 L16.6636364,20.8 C13.1181818,24.8181818 10.1636364,29.4272727 8.03636364,34.5090909 C0.590909091,52.3545455 4.60909091,72.0909091 16.5454545,85.6818182 L12.7636364,89.4636364 C11.5818182,90.6454545 11.5818182,92.6545455 12.7636364,93.8363636 C13.9454545,95.0181818 15.9545455,95.0181818 17.1363636,93.8363636 L20.9181818,90.0545455 C24.8181818,93.4818182 29.4272727,96.4363636 34.5090909,98.5636364 C52.2363636,105.890909 71.8545455,101.990909 85.4454545,90.1727273 L89.3454545,94.0727273 C90.5272727,95.2545455 92.5363636,95.2545455 93.7181818,94.0727273 C94.9,92.8909091 94.9,90.8818182 93.7181818,89.7 L89.8181818,85.8 C93.3636364,81.7818182 96.3181818,77.1727273 98.4454545,72.0909091 C105.772727,54.2454545 101.990909,34.6272727 90.2909091,21.1545455 Z M88.8727273,67.9545455 C80.7181818,87.6909091 58.1454545,97.0272727 38.4090909,88.8727273 C18.6727273,80.7181818 9.33636364,58.1454545 17.4909091,38.4090909 C25.6454545,18.6727273 48.2181818,9.33636364 67.9545455,17.4909091 C87.6909091,25.6454545 97.0272727,48.2181818 88.8727273,67.9545455 Z" id="Shape" fill="#D7D7D7" fill-rule="nonzero" opacity="0.5" style="mix-blend-mode: multiply;"></path>
                    </g>
                </g>
            </g>
        </g>
    </g>
</svg>